<svg width="51" height="44" viewBox="0 0 51 44" fill="none" xmlns="http://www.w3.org/2000/svg">
<ellipse cx="25.5" cy="22" rx="25.5" ry="22" fill="#D9D9D9"/>
<path d="M50 22C50 33.4645 39.1746 43 25.5 43C11.8254 43 1 33.4645 1 22C1 10.5355 11.8254 1 25.5 1C39.1746 1 50 10.5355 50 22Z" stroke="#171717" stroke-opacity="0.7" stroke-width="2"/>
<path d="M23.2969 27.5625C23.2969 26.8021 23.3333 26.1719 23.4062 25.6719C23.4792 25.1615 23.6094 24.7188 23.7969 24.3438C23.9844 23.9583 24.2552 23.5833 24.6094 23.2188C24.974 22.8438 25.4479 22.4115 26.0312 21.9219C26.6562 21.3906 27.1562 20.8698 27.5312 20.3594C27.9167 19.8385 28.1979 19.3229 28.375 18.8125C28.5625 18.2917 28.6562 17.7604 28.6562 17.2188C28.6562 16.2292 28.3854 15.4635 27.8438 14.9219C27.3125 14.3802 26.5573 14.1094 25.5781 14.1094C24.7448 14.1094 24.0312 14.3385 23.4375 14.7969C22.8542 15.2552 22.5625 15.9375 22.5625 16.8438H18.75L18.7188 16.75C18.6979 15.5417 18.9792 14.5052 19.5625 13.6406C20.1458 12.7656 20.9531 12.0938 21.9844 11.625C23.026 11.1562 24.224 10.9219 25.5781 10.9219C27.7865 10.9219 29.5052 11.474 30.7344 12.5781C31.974 13.6719 32.5938 15.1823 32.5938 17.1094C32.5938 18.0156 32.4271 18.849 32.0938 19.6094C31.7708 20.3594 31.3073 21.0885 30.7031 21.7969C30.099 22.4948 29.375 23.2344 28.5312 24.0156C28.1562 24.3594 27.875 24.6875 27.6875 25C27.5 25.3125 27.375 25.6667 27.3125 26.0625C27.25 26.4479 27.2188 26.9479 27.2188 27.5625H23.2969ZM23.2656 34V30.3125H27.2656V34H23.2656Z" fill="#FFA500"/>
</svg>
